<?xml version="1.0" encoding="utf-8"?>
<svg version="1.0" xmlns="http://www.w3.org/2000/svg" xmlns:xlink="http://www.w3.org/1999/xlink" x="0px" y="0px"
	 viewBox="0 0 700 223.47" style="enable-background:new 0 0 700 223.47;" xml:space="preserve">
<style type="text/css">
	.st0{fill:#2A56A3;}
	.st1{fill:#3BB07D;}
</style>
<g>
	<path class="st0" d="M46.11,68.08H7.13l4.7-22.97h106.14l-4.7,22.97h-38.8l-19.84,98.83H26.45L46.11,68.08z"/>
	<path class="st0" d="M161.73,74.86c5.74-1.97,12.5-2.96,20.27-2.96l-4.87,25.06c-3.25-0.23-5.34-0.35-6.26-0.35
		c-8.24,0-14.82,2.03-19.75,6.09c-4.93,4.06-8.27,10.38-10,18.97l-9.05,45.24h-27.14l18.62-93.61h25.75l-2.26,11.14
		C151.09,80.03,155.99,76.84,161.73,74.86z"/>
	<path class="st0" d="M278.4,127.41h-71.69c0.93,12.76,8.99,19.14,24.19,19.14c4.75,0,9.31-0.75,13.66-2.26
		c4.35-1.51,8.15-3.65,11.4-6.44l11.31,17.92c-5.22,4.18-11.2,7.31-17.92,9.4c-6.73,2.09-13.81,3.13-21.23,3.13
		c-9.63,0-18.07-1.71-25.32-5.13c-7.25-3.42-12.82-8.32-16.7-14.7c-3.89-6.38-5.83-13.75-5.83-22.1c0-10.32,2.35-19.63,7.05-27.93
		c4.7-8.29,11.22-14.79,19.57-19.49c8.35-4.7,17.86-7.05,28.54-7.05c9.05,0,16.91,1.68,23.58,5.05c6.67,3.37,11.83,8.18,15.49,14.44
		c3.65,6.26,5.48,13.52,5.48,21.75C279.97,117.44,279.45,122.19,278.4,127.41z M218.02,97.4c-4.41,3.42-7.54,8.15-9.4,14.18h46.46
		c0-6.03-1.89-10.76-5.66-14.18c-3.77-3.42-8.85-5.13-15.22-5.13C227.83,92.26,222.43,93.98,218.02,97.4z"/>
	<path class="st0" d="M313.38,37.8h27.14l-25.75,129.11h-27.14L313.38,37.8z"/>
	<path class="st0" d="M365.75,37.8h27.14l-25.75,129.11H340L365.75,37.8z"/>
	<path class="st0" d="M416.47,163.08c-7.13-3.48-12.65-8.38-16.53-14.7c-3.89-6.32-5.83-13.66-5.83-22.01
		c0-10.32,2.44-19.6,7.31-27.84c4.87-8.24,11.6-14.73,20.18-19.49c8.58-4.75,18.27-7.13,29.06-7.13c9.51,0,17.81,1.74,24.88,5.22
		c7.07,3.48,12.56,8.38,16.44,14.7c3.88,6.32,5.83,13.66,5.83,22.01c0,10.33-2.41,19.61-7.22,27.84
		c-4.82,8.24-11.54,14.73-20.18,19.49c-8.64,4.76-18.36,7.13-29.14,7.13C431.87,168.3,423.6,166.56,416.47,163.08z M457.1,141.94
		c4.18-2.61,7.42-6.23,9.74-10.88c2.32-4.64,3.48-9.98,3.48-16.01c0-6.38-1.86-11.42-5.57-15.14c-3.71-3.71-8.93-5.57-15.66-5.57
		c-5.34,0-10.09,1.31-14.27,3.92c-4.18,2.61-7.42,6.24-9.74,10.88c-2.32,4.64-3.48,9.98-3.48,16.01c0,6.38,1.88,11.43,5.66,15.14
		c3.77,3.71,9.02,5.57,15.75,5.57C448.22,145.86,452.92,144.55,457.1,141.94z"/>
	<path class="st1" d="M505.82,163.87c-3.02-2.96-4.52-6.7-4.52-11.22c0-5.33,1.74-9.68,5.22-13.05c3.48-3.36,7.77-5.05,12.88-5.05
		c4.64,0,8.44,1.45,11.4,4.35c2.96,2.9,4.44,6.67,4.44,11.31c0,5.22-1.77,9.54-5.31,12.96c-3.54,3.42-7.74,5.13-12.62,5.13
		C512.66,168.3,508.83,166.82,505.82,163.87z"/>
	<path class="st1" d="M517.65,196.84l10.79-19.66c3.13,2.2,6.9,3.31,11.31,3.31c3.71,0,6.64-1.1,8.79-3.31
		c2.14-2.2,3.68-5.68,4.61-10.44l18.79-93.44h27.14l-18.62,92.74c-4.76,24.01-18.21,36.02-40.37,36.02
		C531.05,202.06,523.56,200.32,517.65,196.84z M578.63,56.16c-2.96-2.72-4.44-6.06-4.44-10c0-4.64,1.65-8.5,4.96-11.57
		c3.31-3.07,7.63-4.61,12.96-4.61c4.75,0,8.61,1.31,11.57,3.92s4.44,5.83,4.44,9.66c0,4.99-1.68,9.02-5.05,12.09
		c-3.37,3.07-7.72,4.61-13.05,4.61C585.39,60.25,581.59,58.89,578.63,56.16z"/>
	<path class="st1" d="M616.57,165.61c-7.25-1.8-12.91-4.15-16.97-7.05l10.44-19.66c4.06,2.67,9.02,4.81,14.88,6.44
		c5.86,1.63,11.75,2.44,17.66,2.44c6.15,0,10.73-0.78,13.75-2.35c3.01-1.57,4.52-3.8,4.52-6.7c0-2.32-1.33-4-4-5.05
		c-2.67-1.04-6.96-2.14-12.88-3.31c-6.73-1.28-12.27-2.67-16.62-4.18c-4.35-1.51-8.12-3.97-11.31-7.4
		c-3.19-3.42-4.79-8.09-4.79-14.01c0-10.32,4.32-18.38,12.96-24.19c8.64-5.8,19.98-8.7,34.02-8.7c6.5,0,12.82,0.7,18.97,2.09
		c6.15,1.39,11.37,3.31,15.66,5.74l-9.74,19.84c-7.66-4.76-16.88-7.13-27.67-7.13c-5.92,0-10.41,0.87-13.49,2.61
		c-3.07,1.74-4.61,3.94-4.61,6.61c0,2.44,1.33,4.21,4,5.31c2.67,1.1,7.13,2.29,13.4,3.57c6.61,1.28,12.03,2.64,16.27,4.09
		c4.23,1.45,7.92,3.86,11.05,7.22c3.13,3.37,4.7,7.95,4.7,13.75c0,10.44-4.38,18.5-13.14,24.19c-8.76,5.68-20.1,8.53-34.02,8.53
		C631.5,168.3,623.82,167.4,616.57,165.61z"/>
</g>
</svg>
